<?xml version = "1.0" standalone = "no"?> <svg width="13.5cm" height="20.7cm" viewBox="0 0 1350 270" xmlns="http://www.w3.org/2000/svg"> <desc>This SVG made by SVGChat - (savorjava@yahoo.com.cn)</desc> <line x1="151.0" y1="144.0" x2="155.0" y2="167.0" stroke="#000000" stroke-width="1" /> <path d="M156.0,166.0 C142.0,192.0,125.0,168.0 111.0,210.0" stroke="#000000" fill="none" stroke-width="1" /> <line x1="178.0" y1="139.0" x2="182.0" y2="158.0" stroke="#330000" stroke-width="1" /> <path d="M183.0,158.0 C201.0,179.0,217.0,157.0 223.0,192.0" stroke="#003333" fill="none" stroke-width="1" /> <line x1="111.0" y1="210.0" x2="117.0" y2="298.0" stroke="#000000" stroke-width="1" /> <line x1="139.0" y1="210.0" x2="137.0" y2="306.0" stroke="#000000" stroke-width="1" /> <path d="M139.0,210.0 C161.0,210.0,140.0,186.0 203.0,191.0" stroke="#00ccff" fill="none" stroke-width="3" /> <path d="M202.0,191.0 C243.0,218.0,193.0,262.0 217.0,304.0" stroke="#00ccff" fill="none" stroke-width="3" /> <path d="M140.0,254.0 C156.0,276.0,147.0,282.0 138.0,299.0" stroke="#66ccff" fill="none" stroke-width="3" /> <line x1="163.0" y1="135.0" x2="184.0" y2="140.0" stroke="#000000" stroke-width="1" /> <line x1="185.0" y1="140.0" x2="200.0" y2="120.0" stroke="#000000" stroke-width="1" /> <line x1="156.0" y1="103.0" x2="170.0" y2="101.0" stroke="#000000" stroke-width="1" /> <line x1="183.0" y1="97.0" x2="195.0" y2="93.0" stroke="#000000" stroke-width="1" /> <ellipse cx="167.0" cy="110.5" rx="6.0" ry="6.5" stroke="none" fill="#0066cc" stroke-width="1" /> <ellipse cx="192.5" cy="101.5" rx="5.5" ry="6.5" stroke="none" fill="#0066cc" stroke-width="1" /> <ellipse cx="192.5" cy="100.5" rx="3.5" ry="4.5" stroke="none" fill="#ffffff" stroke-width="1" /> <path d="M197.0,65.0 C146.0,54.0,94.0,56.0 223.0,116.0" stroke="none" fill="#000066" stroke-width="1" /> <line x1="200.0" y1="120.0" x2="199.0" y2="101.0" stroke="#000000" stroke-width="1" /> <path d="M160.0,83.0 C136.0,62.0,132.0,62.0 165.0,95.0" stroke="none" fill="#000066" stroke-width="1" /> <line x1="223.0" y1="193.0" x2="230.0" y2="297.0" stroke="#333300" stroke-width="1" /> <rect x="72.0" y="43.0" width="204.0" height="276.0" rx="190.0" ry="290.0" stroke="#ff9900" fill="none" stroke-width="5" /> <line x1="148.0" y1="182.0" x2="155.0" y2="198.0" stroke="#33ccff" stroke-width="2" /> <line x1="194.0" y1="165.0" x2="200.0" y2="190.0" stroke="#33ccff" stroke-width="2" /> <ellipse cx="166.5" cy="109.0" rx="4.5" ry="4.0" stroke="none" fill="#ffffff" stroke-width="1" /> <path d="M188.0,120.0 C183.0,118.0,179.0,118.0 188.0,116.0" stroke="none" fill="#ffcccc" stroke-width="1" /> <path d="M178.0,125.0 C178.0,126.0,181.0,132.0 190.0,125.0" stroke="none" fill="#cc0000" stroke-width="1" /> <path d="M167.0,172.0 C158.0,-20.0,116.0,79.0 123.0,211.0" stroke="none" fill="#000066" stroke-width="1" /> </svg>